<svg width="16" height="16" viewBox="0 0 16 16" fill="none" xmlns="http://www.w3.org/2000/svg">
<rect width="16" height="16" rx="4" fill="white"/>
<path d="M3 7.51123V4.9655C3 4.32424 3.385 4.16996 3.855 4.62317L5.15 5.87193C5.345 6.05997 5.665 6.05997 5.855 5.87193L7.645 4.14103C7.84 3.95299 8.16 3.95299 8.35 4.14103L10.145 5.87193C10.34 6.05997 10.66 6.05997 10.85 5.87193L12.145 4.62317C12.615 4.16996 13 4.32424 13 4.9655V9.58927C13 11.0357 12 12 10.5 12H5.5C4.12 12 3 10.92 3 9.58927" stroke="#0C0507" stroke-linecap="round" stroke-linejoin="round"/>
</svg>
